<?xml version="1.0" standalone="no"?>
<!DOCTYPE svg PUBLIC "-//W3C//DTD SVG 20010904//EN"
 "http://www.w3.org/TR/2001/REC-SVG-20010904/DTD/svg10.dtd">
<svg version="1.0" xmlns="http://www.w3.org/2000/svg"
 width="64.000000pt" height="64.000000pt" viewBox="0 0 64.000000 64.000000"
 preserveAspectRatio="xMidYMid meet">

<g transform="translate(0.000000,64.000000) scale(0.100000,-0.100000)"
fill="#000000" stroke="none">
<path d="M0 571 c0 -20 13 -45 40 -76 l40 -46 0 -156 c0 -152 1 -157 26 -190
41 -54 69 -63 196 -63 127 0 162 13 198 72 29 47 29 174 0 211 -32 40 -26 84
16 123 29 28 43 34 80 34 44 0 44 0 44 35 0 58 -35 85 -110 85 -66 0 -102 -14
-139 -54 -22 -23 -32 -26 -93 -26 -67 0 -70 1 -107 40 -38 40 -38 40 -114 40
l-77 0 0 -29z m153 -31 c14 -11 29 -29 32 -40 6 -18 16 -20 104 -20 l99 0 40
40 c36 37 44 40 94 40 49 0 78 -12 78 -32 0 -4 -12 -8 -28 -8 -35 0 -98 -42
-117 -80 -21 -40 -19 -99 5 -135 24 -37 27 -123 5 -165 -27 -52 -49 -60 -171
-60 l-112 0 -31 35 -31 36 0 155 0 154 -40 44 c-22 24 -40 46 -40 50 0 16 89
5 113 -14z"/>
<path d="M194 427 c-3 -8 -4 -34 -2 -58 2 -36 7 -44 23 -44 18 0 20 7 20 55 0
44 -3 55 -18 58 -9 2 -20 -3 -23 -11z"/>
<path d="M324 427 c-3 -8 -4 -34 -2 -58 2 -36 7 -44 23 -44 18 0 20 7 20 55 0
44 -3 55 -18 58 -9 2 -20 -3 -23 -11z"/>
<path d="M287 274 c-4 -4 -7 -26 -7 -49 0 -48 -13 -65 -52 -65 -21 0 -28 -5
-28 -20 0 -27 53 -27 79 -1 19 19 20 19 37 0 24 -27 84 -26 84 1 0 15 -7 20
-28 20 -47 0 -72 42 -31 53 16 4 20 12 17 34 -2 23 -8 29 -33 31 -17 2 -34 0
-38 -4z"/>
</g>
</svg>
