<?xml version="1.0" standalone="no"?>
<!DOCTYPE svg PUBLIC "-//W3C//DTD SVG 20010904//EN"
 "http://www.w3.org/TR/2001/REC-SVG-20010904/DTD/svg10.dtd">
<svg version="1.0" xmlns="http://www.w3.org/2000/svg"
 width="64.000000pt" height="64.000000pt" viewBox="0 0 64.000000 64.000000"
 preserveAspectRatio="xMidYMid meet">

<g transform="translate(0.000000,64.000000) scale(0.100000,-0.100000)"
fill="#000000" stroke="none">
<path d="M43 550 c-31 -13 -43 -41 -43 -105 0 -67 10 -90 50 -110 26 -13 30
-21 30 -55 0 -40 0 -40 -40 -40 -33 0 -40 -3 -40 -20 0 -17 7 -20 40 -20 53 0
54 -27 2 -55 -23 -12 -38 -29 -40 -43 -4 -27 0 -27 47 0 l38 22 40 -42 40 -42
142 0 c154 0 181 7 220 57 l22 26 37 -19 c20 -10 40 -20 45 -22 4 -2 7 5 7 15
0 12 -15 28 -40 42 -25 14 -40 29 -40 42 0 16 7 19 40 19 33 0 40 3 40 20 0
17 -7 20 -48 20 -44 0 -72 12 -72 32 0 4 6 8 14 8 7 0 34 18 60 41 l46 41 0
74 c0 66 -3 78 -25 99 -21 21 -33 25 -88 25 -80 0 -114 -22 -123 -81 l-7 -40
-75 3 -76 3 -7 35 c-11 55 -49 80 -117 79 -31 0 -67 -4 -79 -9z m130 -42 c9
-7 22 -31 29 -53 10 -32 20 -42 46 -50 39 -11 41 -22 6 -35 -23 -9 -25 -14
-22 -67 3 -50 6 -58 23 -58 17 0 20 8 23 49 2 36 9 54 23 64 10 7 19 20 19 28
0 11 14 14 60 14 l60 0 0 44 c0 55 24 76 87 76 52 0 73 -25 73 -88 0 -35 -6
-48 -31 -73 -17 -16 -44 -32 -60 -36 -25 -5 -29 -10 -29 -39 0 -21 8 -42 20
-54 24 -24 25 -51 5 -90 -28 -54 -47 -60 -186 -60 -111 0 -130 2 -150 20 l-24
19 28 1 c20 0 27 5 27 20 0 17 -7 20 -40 20 -33 0 -40 3 -40 20 0 17 7 20 40
20 33 0 40 3 40 20 0 17 -7 20 -40 20 l-40 0 0 59 c0 54 -2 59 -24 65 -39 10
-56 34 -56 78 0 55 22 78 75 78 22 0 49 -6 58 -12z"/>
<path d="M440 390 c0 -6 -11 -16 -25 -22 -24 -11 -26 -16 -23 -67 3 -48 6 -56
23 -56 17 0 20 8 23 49 2 36 9 54 23 64 25 17 24 42 -1 42 -11 0 -20 -5 -20
-10z"/>
<path d="M360 212 c0 -36 -16 -52 -52 -52 -21 0 -28 -5 -28 -20 0 -16 7 -20
32 -20 17 0 40 7 50 17 17 15 19 15 36 0 10 -10 26 -17 35 -17 25 0 21 34 -5
45 -16 7 -24 20 -26 43 -2 24 -8 32 -23 32 -14 0 -19 -7 -19 -28z"/>
</g>
</svg>
