<?xml version="1.0" standalone="no"?>
<!DOCTYPE svg PUBLIC "-//W3C//DTD SVG 20010904//EN"
 "http://www.w3.org/TR/2001/REC-SVG-20010904/DTD/svg10.dtd">
<svg version="1.0" xmlns="http://www.w3.org/2000/svg"
 width="64.000000pt" height="64.000000pt" viewBox="0 0 64.000000 64.000000"
 preserveAspectRatio="xMidYMid meet">

<g transform="translate(0.000000,64.000000) scale(0.100000,-0.100000)"
fill="#000000" stroke="none">
<path d="M53 540 c-43 -26 -56 -54 -49 -104 7 -47 7 -51 1 -131 -5 -52 -2 -66
22 -110 17 -30 46 -61 73 -80 44 -29 49 -30 177 -33 126 -3 136 -2 190 23 80
36 121 78 129 131 7 51 1 75 -32 114 -20 23 -23 33 -15 49 23 42 13 82 -29
123 -36 33 -47 38 -89 38 -52 0 -95 -24 -106 -60 -5 -16 -15 -20 -55 -20 -40
0 -50 4 -55 20 -18 56 -102 77 -162 40z m116 -46 c12 -15 21 -33 21 -40 0 -11
20 -14 85 -14 81 0 85 1 85 22 0 58 75 77 129 32 34 -28 37 -42 19 -90 -11
-30 -9 -35 21 -70 29 -32 32 -42 28 -77 -7 -49 -37 -83 -102 -113 -43 -21 -65
-24 -163 -24 -150 0 -199 24 -237 113 -19 47 -19 96 1 118 14 16 14 20 0 48
-23 44 -20 76 10 100 37 29 78 27 103 -5z"/>
<path d="M87 472 c-22 -24 -21 -45 1 -65 24 -22 45 -21 65 1 22 24 21 45 -1
65 -24 22 -45 21 -65 -1z"/>
<path d="M407 472 c-22 -24 -21 -45 1 -65 24 -22 45 -21 65 1 22 24 21 45 -1
65 -24 22 -45 21 -65 -1z"/>
<path d="M231 260 c-24 -11 -49 -20 -57 -20 -8 0 -14 -9 -14 -20 0 -26 34 -26
91 0 57 25 129 26 179 0 22 -11 51 -20 65 -20 18 0 25 5 25 20 0 11 -7 20 -15
20 -9 0 -33 9 -55 20 -53 27 -159 27 -219 0z"/>
</g>
</svg>
