<?xml version="1.0" standalone="no"?>
<!DOCTYPE svg PUBLIC "-//W3C//DTD SVG 20010904//EN"
 "http://www.w3.org/TR/2001/REC-SVG-20010904/DTD/svg10.dtd">
<svg version="1.0" xmlns="http://www.w3.org/2000/svg"
 width="64.000000pt" height="64.000000pt" viewBox="0 0 64.000000 64.000000"
 preserveAspectRatio="xMidYMid meet">

<g transform="translate(0.000000,64.000000) scale(0.100000,-0.100000)"
fill="#000000" stroke="none">
<path d="M83 588 c-22 -10 -43 -54 -43 -89 0 -10 -10 -34 -21 -54 -19 -31 -21
-47 -17 -133 3 -87 7 -104 34 -152 23 -41 45 -63 85 -87 l54 -33 143 0 c158 0
185 7 247 61 58 51 75 97 75 208 0 72 -4 104 -19 135 -10 23 -22 58 -25 78
-13 75 -97 102 -163 52 -18 -14 -33 -32 -33 -40 0 -11 -17 -14 -79 -14 -71 0
-80 2 -86 20 -16 50 -96 75 -152 48z m82 -88 c0 -18 -6 -26 -23 -28 -13 -2
-25 3 -28 12 -10 26 4 48 28 44 17 -2 23 -10 23 -28z m360 0 c0 -18 -6 -26
-23 -28 -13 -2 -25 3 -28 12 -10 26 4 48 28 44 17 -2 23 -10 23 -28z m-91
-194 c54 -22 76 -60 76 -127 0 -50 -3 -60 -26 -78 -24 -19 -40 -21 -155 -21
-120 0 -130 1 -149 22 -18 20 -21 32 -18 85 4 68 21 96 73 119 40 17 157 18
199 0z"/>
<path d="M365 268 c-2 -7 -6 -31 -7 -53 -2 -30 -8 -42 -25 -50 -31 -13 -30
-45 1 -45 13 0 27 7 30 16 6 16 8 16 24 0 10 -9 26 -16 35 -16 24 0 21 33 -3
48 -26 16 -25 28 1 35 16 4 20 12 17 39 -3 29 -7 33 -36 36 -20 2 -34 -2 -37
-10z"/>
</g>
</svg>
