<?xml version="1.0" standalone="no"?>
<!DOCTYPE svg PUBLIC "-//W3C//DTD SVG 20010904//EN"
 "http://www.w3.org/TR/2001/REC-SVG-20010904/DTD/svg10.dtd">
<svg version="1.0" xmlns="http://www.w3.org/2000/svg"
 width="64.000000pt" height="64.000000pt" viewBox="0 0 64.000000 64.000000"
 preserveAspectRatio="xMidYMid meet">

<g transform="translate(0.000000,64.000000) scale(0.100000,-0.100000)"
fill="#000000" stroke="none">
<path d="M338 603 c-47 -50 -58 -73 -58 -125 l0 -43 -59 63 -60 62 -60 0 c-74
0 -101 -20 -101 -76 0 -34 2 -36 75 -70 72 -33 77 -38 100 -91 17 -38 25 -74
25 -113 0 -67 28 -143 59 -159 11 -6 75 -11 146 -11 l127 0 34 34 c30 30 34
40 34 89 0 39 -6 61 -20 80 -11 14 -20 37 -20 51 0 50 -27 95 -75 124 -41 24
-45 30 -40 57 3 16 21 46 40 65 62 63 44 100 -50 100 -57 0 -63 -2 -97 -37z
m142 -10 c0 -4 -16 -24 -37 -45 -31 -32 -37 -45 -41 -93 -4 -52 -3 -55 19 -55
13 0 32 -6 41 -13 15 -12 15 -14 -3 -25 -17 -11 -19 -22 -17 -65 3 -44 6 -52
23 -52 16 0 21 8 23 43 2 28 8 42 18 42 10 0 14 -12 14 -42 0 -24 7 -49 16
-59 23 -26 29 -99 10 -124 -12 -15 -15 -16 -16 -5 0 8 -10 20 -22 25 -26 12
-36 35 -14 35 9 0 16 8 16 21 0 17 -5 20 -32 17 -28 -2 -34 -8 -36 -31 -2 -15
-12 -33 -23 -40 -10 -6 -19 -20 -19 -29 0 -15 -9 -18 -52 -18 -29 0 -58 4 -65
8 -38 24 -62 202 -28 202 10 0 15 -10 15 -32 0 -42 13 -63 34 -55 20 8 23 96
4 115 -19 19 -68 15 -68 -5 -1 -10 -13 5 -27 32 -28 55 -43 68 -118 105 -35
18 -50 31 -50 45 0 17 8 20 47 23 47 3 49 2 107 -57 57 -59 60 -61 110 -61 44
0 51 3 51 20 0 13 -7 20 -20 20 -42 0 -18 109 32 144 22 16 108 23 108 9z m-2
-501 c2 -7 -6 -12 -17 -12 -21 0 -27 11 -14 24 9 9 26 2 31 -12z"/>
</g>
</svg>
