<?xml version="1.0" standalone="no"?>
<!DOCTYPE svg PUBLIC "-//W3C//DTD SVG 20010904//EN"
 "http://www.w3.org/TR/2001/REC-SVG-20010904/DTD/svg10.dtd">
<svg version="1.0" xmlns="http://www.w3.org/2000/svg"
 width="64.000000pt" height="64.000000pt" viewBox="0 0 64.000000 64.000000"
 preserveAspectRatio="xMidYMid meet">

<g transform="translate(0.000000,64.000000) scale(0.100000,-0.100000)"
fill="#000000" stroke="none">
<path d="M120 558 c-8 -24 -29 -74 -47 -113 -23 -48 -33 -84 -33 -117 0 -41
-3 -48 -20 -48 -13 0 -20 -7 -20 -20 0 -15 7 -20 29 -20 45 0 48 -34 5 -61
-20 -12 -34 -29 -34 -40 0 -24 3 -24 49 3 l39 22 40 -36 c51 -46 75 -50 245
-46 l136 3 34 33 c30 29 38 32 55 23 30 -16 42 -14 42 7 0 11 -12 24 -26 31
-17 8 -24 17 -20 27 3 9 6 20 6 25 0 5 9 9 20 9 13 0 20 7 20 20 0 13 -7 20
-20 20 -16 0 -20 7 -20 35 0 20 -6 50 -13 68 -8 18 -17 50 -21 72 -25 146 -25
145 -61 145 -27 0 -39 -8 -65 -40 l-32 -40 -78 0 -77 0 -27 40 c-22 33 -32 40
-60 40 -30 0 -34 -4 -46 -42z m86 -38 l27 -40 98 0 98 0 32 40 c18 22 36 40
40 40 4 0 12 -33 19 -72 6 -40 18 -90 26 -111 8 -20 14 -51 14 -67 0 -28 -2
-30 -40 -30 -33 0 -40 -3 -40 -20 0 -17 7 -20 40 -20 43 0 43 0 34 -24 -4 -10
-18 -16 -40 -16 -27 0 -34 -4 -34 -20 0 -15 7 -20 28 -20 l27 -1 -24 -19 c-21
-18 -39 -20 -165 -20 -162 0 -193 9 -188 53 3 23 0 27 -22 27 -14 0 -26 2 -26
4 0 2 -3 11 -6 20 -5 13 1 16 25 16 24 0 31 4 31 20 0 17 -7 20 -40 20 l-40 0
0 43 c0 25 11 65 28 102 16 33 34 77 41 98 7 20 17 37 22 37 5 0 21 -18 35
-40z"/>
<path d="M160 390 c0 -13 7 -20 19 -20 16 0 20 -8 23 -42 3 -42 4 -43 38 -43
35 0 35 0 38 48 4 63 -8 77 -69 77 -42 0 -49 -3 -49 -20z"/>
<path d="M371 396 c-7 -8 -11 -36 -9 -63 3 -48 3 -48 38 -48 34 0 35 1 38 43
3 34 7 42 23 42 12 0 19 7 19 20 0 17 -7 20 -49 20 -30 0 -53 -5 -60 -14z"/>
<path d="M320 250 c0 -31 -22 -50 -59 -50 -14 0 -21 -6 -21 -20 0 -25 45 -28
78 -4 21 15 25 15 41 0 10 -9 25 -16 34 -16 25 0 21 34 -5 45 -16 7 -24 20
-26 43 -2 24 -8 32 -23 32 -14 0 -19 -7 -19 -30z"/>
</g>
</svg>
