<?xml version="1.0" standalone="no"?>
<!DOCTYPE svg PUBLIC "-//W3C//DTD SVG 20010904//EN"
 "http://www.w3.org/TR/2001/REC-SVG-20010904/DTD/svg10.dtd">
<svg version="1.0" xmlns="http://www.w3.org/2000/svg"
 width="64.000000pt" height="64.000000pt" viewBox="0 0 64.000000 64.000000"
 preserveAspectRatio="xMidYMid meet">

<g transform="translate(0.000000,64.000000) scale(0.100000,-0.100000)"
fill="#000000" stroke="none">
<path d="M280 600 c0 -40 0 -40 -39 -40 -80 0 -159 -95 -160 -193 -1 -27 -10
-65 -21 -87 -24 -46 -26 -119 -5 -159 8 -16 28 -40 45 -55 30 -25 36 -26 161
-26 110 0 136 3 169 20 22 11 46 20 53 20 8 0 47 7 86 16 l71 16 0 44 c0 39
-4 47 -32 64 -18 11 -45 20 -60 20 l-28 0 0 92 c0 79 -3 97 -25 134 -14 23
-41 52 -60 64 -40 25 -43 37 -15 73 25 31 25 37 2 37 -22 0 -47 -25 -56 -57
-5 -14 -15 -23 -27 -23 -16 0 -19 7 -19 40 0 33 -3 40 -20 40 -17 0 -20 -7
-20 -40z m116 -96 c58 -28 78 -67 83 -159 3 -71 2 -78 -12 -66 -10 8 -17 33
-19 64 -3 44 -6 52 -23 52 -16 0 -21 -8 -23 -36 l-3 -37 -60 -4 c-53 -4 -64
-9 -97 -41 -35 -36 -37 -40 -40 -117 l-4 -80 -28 0 c-19 0 -37 11 -59 35 -38
43 -41 96 -11 155 11 22 20 59 20 82 1 59 32 123 72 148 42 26 154 28 204 4z
m36 -253 c44 -37 71 -51 103 -51 36 0 65 -17 65 -39 0 -13 -13 -21 -51 -29
-73 -17 -124 -15 -169 8 -24 12 -59 20 -90 20 -47 0 -50 1 -50 26 0 16 13 39
34 60 29 29 41 34 80 34 36 0 52 -6 78 -29z m-67 -151 l40 -19 -82 0 c-77 -1
-83 1 -83 19 0 17 6 20 43 19 23 0 60 -9 82 -19z"/>
<path d="M204 387 c-3 -8 -4 -34 -2 -58 2 -36 7 -44 23 -44 18 0 20 7 20 55 0
44 -3 55 -18 58 -9 2 -20 -3 -23 -11z"/>
</g>
</svg>
